<svg xmlns="http://www.w3.org/2000/svg" xmlns:xlink="http://www.w3.org/1999/xlink" viewBox="0 0 750 500"><defs><style>.cls-1{fill:none;}.cls-2{isolation:isolate;}.cls-3{clip-path:url(#clip-path);}.cls-4{fill:url(#Degradado_sin_nombre_16);}.cls-12,.cls-14,.cls-17,.cls-18,.cls-20,.cls-5,.cls-7,.cls-9{opacity:0.9;mix-blend-mode:multiply;}.cls-5{fill:url(#radial-gradient);}.cls-10,.cls-13,.cls-15,.cls-19,.cls-21,.cls-6,.cls-8{stroke-miterlimit:10;stroke-width:3px;}.cls-6{fill:url(#Degradado_sin_nombre_31);stroke:url(#Degradado_sin_nombre_39);}.cls-7{fill:url(#radial-gradient-2);}.cls-8{fill:url(#Degradado_sin_nombre_50);stroke:url(#Degradado_sin_nombre_52);}.cls-9{fill:url(#radial-gradient-3);}.cls-10{fill:url(#Degradado_sin_nombre_49);stroke:url(#Degradado_sin_nombre_47);}.cls-11,.cls-22{mix-blend-mode:color-dodge;}.cls-11{fill:url(#Degradado_sin_nombre_45);}.cls-12{fill:url(#radial-gradient-4);}.cls-13{fill:url(#Degradado_sin_nombre_56);stroke:url(#Degradado_sin_nombre_57);}.cls-14{fill:url(#radial-gradient-5);}.cls-15{fill:url(#Degradado_sin_nombre_31-2);stroke:url(#Degradado_sin_nombre_39-2);}.cls-16{clip-path:url(#clip-path-2);}.cls-17{fill:url(#radial-gradient-6);}.cls-18{fill:url(#radial-gradient-7);}.cls-19{fill:url(#Degradado_sin_nombre_50-2);stroke:url(#Degradado_sin_nombre_52-2);}.cls-20{fill:url(#radial-gradient-8);}.cls-21{fill:url(#Degradado_sin_nombre_49-2);stroke:url(#Degradado_sin_nombre_47-2);}.cls-22{fill:url(#Degradado_sin_nombre_45-2);}</style><clipPath id="clip-path"><rect class="cls-1" width="750" height="500"/></clipPath><radialGradient id="Degradado_sin_nombre_16" cx="375" cy="249.06" r="446.02" gradientTransform="translate(168.25 624.06) rotate(-90) scale(1 0.83)" gradientUnits="userSpaceOnUse"><stop offset="0.13" stop-color="#25304b"/><stop offset="0.45" stop-color="#1c253b"/><stop offset="1" stop-color="#080c18"/></radialGradient><radialGradient id="radial-gradient" cx="1044.64" cy="931.67" r="282.72" gradientTransform="matrix(-0.21, 0.26, -2.5, -1.79, 2753.33, 1821.87)" gradientUnits="userSpaceOnUse"><stop offset="0"/><stop offset="1" stop-color="#fff" stop-opacity="0"/></radialGradient><radialGradient id="Degradado_sin_nombre_31" cx="316.66" cy="549.46" r="148.4" gradientTransform="matrix(0.88, -0.48, 0.48, 0.88, -210.13, 130.93)" gradientUnits="userSpaceOnUse"><stop offset="0.13" stop-color="#25304b"/><stop offset="0.3" stop-color="#212b43"/><stop offset="0.89" stop-color="#0c111f"/><stop offset="1" stop-color="#080c18"/></radialGradient><radialGradient id="Degradado_sin_nombre_39" cx="289.28" cy="522.49" r="296.19" gradientTransform="matrix(0.88, -0.48, 0.48, 0.88, -210.13, 130.93)" gradientUnits="userSpaceOnUse"><stop offset="0" stop-color="#455170"/><stop offset="0.12" stop-color="#3a4560"/><stop offset="0.36" stop-color="#1e2437"/><stop offset="0.51" stop-color="#080c18"/></radialGradient><radialGradient id="radial-gradient-2" cx="1287.38" cy="1068.74" r="190.54" gradientTransform="matrix(0.37, -0.21, 1.64, 2.6, -1480.84, -2276.38)" xlink:href="#radial-gradient"/><radialGradient id="Degradado_sin_nombre_50" cx="109.87" cy="342.51" r="152.26" gradientTransform="translate(799.77 494.07) rotate(173.9)" gradientUnits="userSpaceOnUse"><stop offset="0" stop-color="#3380ec"/><stop offset="0.18" stop-color="#2b6bcc"/><stop offset="0.57" stop-color="#1a4189"/><stop offset="0.85" stop-color="#102660"/><stop offset="1" stop-color="#0c1c50"/></radialGradient><radialGradient id="Degradado_sin_nombre_52" cx="110.3" cy="339.91" r="194.18" gradientTransform="translate(799.77 494.07) rotate(173.9)" gradientUnits="userSpaceOnUse"><stop offset="0" stop-color="#0c1c50"/><stop offset="0.41" stop-color="#0c1d52"/><stop offset="0.56" stop-color="#0e2259"/><stop offset="0.67" stop-color="#112964"/><stop offset="0.75" stop-color="#153475"/><stop offset="0.82" stop-color="#1b428b"/><stop offset="0.89" stop-color="#2253a7"/><stop offset="0.95" stop-color="#2968c6"/><stop offset="1" stop-color="#337fea"/><stop offset="1" stop-color="#3380ec"/></radialGradient><radialGradient id="radial-gradient-3" cx="1376.74" cy="1051.04" r="231.5" gradientTransform="matrix(0.27, -0.2, 1.98, 2.36, -1679.68, -2009.9)" xlink:href="#radial-gradient"/><radialGradient id="Degradado_sin_nombre_49" cx="86.91" cy="423.84" r="140.37" gradientTransform="translate(861.2 475.66) rotate(166)" gradientUnits="userSpaceOnUse"><stop offset="0" stop-color="#25304b"/><stop offset="0.37" stop-color="#1c253b"/><stop offset="1" stop-color="#080c18"/></radialGradient><radialGradient id="Degradado_sin_nombre_47" cx="73.57" cy="353.49" r="243.14" gradientTransform="translate(861.2 475.66) rotate(166)" gradientUnits="userSpaceOnUse"><stop offset="0" stop-color="#455170"/><stop offset="0.18" stop-color="#3a4560"/><stop offset="0.52" stop-color="#1e2437"/><stop offset="0.75" stop-color="#080c18"/></radialGradient><radialGradient id="Degradado_sin_nombre_45" cx="1628.82" cy="63.02" r="287.64" gradientTransform="matrix(-0.1, 0.99, 0.07, 0.01, 893.83, -1460.59)" gradientUnits="userSpaceOnUse"><stop offset="0" stop-color="#4dcbff"/><stop offset="0.12" stop-color="#3c9fc8"/><stop offset="0.24" stop-color="#2d7694"/><stop offset="0.37" stop-color="#1f5266"/><stop offset="0.5" stop-color="#143441"/><stop offset="0.63" stop-color="#0b1d25"/><stop offset="0.75" stop-color="#050d10"/><stop offset="0.88" stop-color="#010304"/><stop offset="1"/></radialGradient><radialGradient id="radial-gradient-4" cx="1175.9" cy="1053.12" r="225.01" gradientTransform="matrix(-0.37, 0.21, -1.64, -2.6, 2220.53, 2759.98)" xlink:href="#radial-gradient"/><radialGradient id="Degradado_sin_nombre_56" cx="158.72" cy="310.6" r="233.2" gradientTransform="translate(-49.78 5.93) rotate(-6.1)" gradientUnits="userSpaceOnUse"><stop offset="0" stop-color="#3380ec"/><stop offset="0.2" stop-color="#2760bb"/><stop offset="0.41" stop-color="#1b438d"/><stop offset="0.61" stop-color="#132e6c"/><stop offset="0.76" stop-color="#0e2157"/><stop offset="0.87" stop-color="#0c1c50"/></radialGradient><radialGradient id="Degradado_sin_nombre_57" cx="159.15" cy="307.99" r="236.4" gradientTransform="translate(-49.78 5.93) rotate(-6.1)" gradientUnits="userSpaceOnUse"><stop offset="0" stop-color="#0c1c50"/><stop offset="0.15" stop-color="#102660"/><stop offset="0.43" stop-color="#1a4189"/><stop offset="0.82" stop-color="#2b6bcc"/><stop offset="1" stop-color="#3380ec"/></radialGradient><radialGradient id="radial-gradient-5" cx="1256.02" cy="1062.01" r="282.69" gradientTransform="matrix(-0.27, 0.2, -1.98, -2.36, 2437.21, 2518.91)" xlink:href="#radial-gradient"/><radialGradient id="Degradado_sin_nombre_31-2" cx="138.48" cy="385.37" r="245.01" gradientTransform="translate(478.98 444.37) rotate(124.29) scale(1 0.89)" xlink:href="#Degradado_sin_nombre_31"/><radialGradient id="Degradado_sin_nombre_39-2" cx="114.72" cy="329.66" r="296.19" gradientTransform="translate(-111.2 24.34) rotate(-14)" xlink:href="#Degradado_sin_nombre_39"/><clipPath id="clip-path-2"><rect class="cls-1" x="-599" width="500" height="500"/></clipPath><radialGradient id="radial-gradient-6" cx="2282.76" cy="1234.79" r="282.72" gradientTransform="matrix(-0.21, 0.26, -2.5, -1.79, 3051.86, 2036.07)" xlink:href="#radial-gradient"/><radialGradient id="radial-gradient-7" cx="-154.93" cy="874.88" r="190.54" gradientTransform="matrix(0.37, -0.21, 1.64, 2.6, -1352.51, -2072.27)" xlink:href="#radial-gradient"/><radialGradient id="Degradado_sin_nombre_50-2" cx="829.8" cy="419.4" r="152.26" xlink:href="#Degradado_sin_nombre_50"/><radialGradient id="Degradado_sin_nombre_52-2" cx="830.24" cy="416.8" r="194.18" xlink:href="#Degradado_sin_nombre_52"/><radialGradient id="radial-gradient-8" cx="-253.72" cy="815.01" r="231.5" gradientTransform="matrix(0.27, -0.2, 1.98, 2.36, -1492.05, -1785.7)" xlink:href="#radial-gradient"/><radialGradient id="Degradado_sin_nombre_49-2" cx="789.37" cy="599.04" r="140.37" xlink:href="#Degradado_sin_nombre_49"/><radialGradient id="Degradado_sin_nombre_47-2" cx="776.04" cy="528.69" r="243.14" xlink:href="#Degradado_sin_nombre_47"/><radialGradient id="Degradado_sin_nombre_45-2" cx="1644.02" cy="-660.88" r="287.64" gradientTransform="matrix(-0.1, 0.99, 0.07, 0.01, 222.19, -1470.54)" xlink:href="#Degradado_sin_nombre_45"/></defs><title>bg</title><g class="cls-2"><g id="BACKGROUND_2" data-name="BACKGROUND 2"><g class="cls-3"><rect class="cls-4" width="750" height="500"/><path class="cls-5" d="M257,632.07C-69.86,398.67-299.53,163.14-256,106S87.84,191.8,414.63,425.16s556.5,468.94,513,526.06S583.8,865.47,257,632.07Z"/><polygon class="cls-6" points="-39.82 209.6 627.55 700.9 317.02 868.96 -39.82 209.6"/><path class="cls-7" d="M755.14,45.7c140,221.23,250.07,500.21,199.75,529.93s-242-201-381.95-422.23S360.34-271.27,410.66-301,615.21-175.51,755.14,45.7Z"/><polygon class="cls-8" points="794.53 395.89 513.79 -65.53 742.62 -89.98 794.53 395.89"/><path class="cls-9" d="M769.37,15.12C981,266.88,1115.14,500.52,1068.94,536.94S813.75,398.81,602.14,147.08,256.37-338.31,302.56-374.74,557.74-236.63,769.37,15.12Z"/><polygon class="cls-10" points="918.63 410.71 489.49 -115.03 770.05 -185.01 918.63 410.71"/><circle class="cls-11" cx="734.99" cy="181.7" r="212.57" transform="translate(86.79 572.94) rotate(-45)"/><path class="cls-12" d="M16.5,443.79C-154.39,173.65-243.12-74.78-181.67-111.07S68.12,42.18,239,312.28,498.59,830.85,437.15,867.16,187.37,713.92,16.5,443.79Z"/><polygon class="cls-13" points="-30.38 16.17 312.43 579.62 33.01 609.48 -30.38 16.17"/><path class="cls-14" d="M.35,481.14C-258.09,173.71-421.88-111.58-365.47-156S-53.85,12.62,204.55,320,626.77,912.72,570.37,957.21,258.76,788.56.35,481.14Z"/><polygon class="cls-15" points="-181.92 -1.92 342.11 640.07 -0.49 725.52 -181.92 -1.92"/></g></g><g id="BACKGROUND_1" data-name="BACKGROUND 1"><g class="cls-16"><path class="cls-17" d="M-467,632.07C-793.86,398.67-1023.53,163.14-980,106s343.81,85.78,670.6,319.14,556.5,468.94,513,526.06S-140.2,865.47-467,632.07Z"/><path class="cls-18" d="M31.14,45.7c140,221.23,250.07,500.21,199.75,529.93s-242-201-381.95-422.23S-363.66-271.27-313.34-301-108.79-175.51,31.14,45.7Z"/><polygon class="cls-19" points="70.53 395.89 -210.21 -65.53 18.62 -89.98 70.53 395.89"/><path class="cls-20" d="M45.37,15.12C257,266.88,391.14,500.52,345,536.94S89.75,398.81-121.86,147.08-467.63-338.31-421.44-374.74-166.26-236.63,45.37,15.12Z"/><polygon class="cls-21" points="194.63 410.71 -234.51 -115.03 46.05 -185.01 194.63 410.71"/><circle class="cls-22" cx="10.99" cy="181.7" r="212.57" transform="translate(-125.26 60.99) rotate(-45)"/></g></g></g></svg>