<svg xmlns="http://www.w3.org/2000/svg" width="159.884" height="39.682" viewBox="0 0 159.884 39.682">
  <g id="Groupe_284" data-name="Groupe 284" transform="translate(-25.036 -21.953)">
    <text id="LGPA" transform="translate(79.92 52.293)" fill="#fff" font-size="30" font-family="GtekNova, Gtek Nova"><tspan x="0" y="0">LGPA</tspan></text>
    <path id="Tracé_409" data-name="Tracé 409" d="M175.085,21.953l-7.364,12.941a7.011,7.011,0,0,1,3,3.417l13.465-7.03a19.062,19.062,0,0,0-9.1-9.328" transform="translate(-120.233)" fill="#fff"/>
    <g id="Groupe_283" data-name="Groupe 283" transform="translate(25.036 22.037)">
      <path id="Tracé_410" data-name="Tracé 410" d="M27.506,92.214a17.305,17.305,0,0,1,2.478-17.32l-.851-.851a18.52,18.52,0,0,0-2.541,19.084Z" transform="translate(-25.036 -65.931)" fill="#fff"/>
      <path id="Tracé_411" data-name="Tracé 411" d="M223.938,98.407a16.821,16.821,0,0,1-3.544,18.525c-.021.021-.043.039-.064.06l2.111,2.11c.021-.021.043-.039.064-.061a19.814,19.814,0,0,0,4.08-22.035Z" transform="translate(-189.6 -85.282)" fill="#fff"/>
      <path id="Tracé_412" data-name="Tracé 412" d="M58.088,30.448c.021-.021.04-.043.061-.064a16.825,16.825,0,0,1,18.812-3.42l1.4-2.646a19.819,19.819,0,0,0-22.322,3.955c-.021.021-.039.044-.06.064Z" transform="translate(-51.109 -22.489)" fill="#fff"/>
      <path id="Tracé_413" data-name="Tracé 413" d="M107.207,247.021a16.906,16.906,0,0,1-12.086-.469l-1.4,2.646a19.892,19.892,0,0,0,14.863.487Z" transform="translate(-82.914 -211.296)" fill="#fff"/>
    </g>
    <path id="Tracé_414" data-name="Tracé 414" d="M74.265,68.695a9.338,9.338,0,0,0-1.914-1.462l3.7-6.766a14,14,0,0,0-3.549-.995v3.174a11.071,11.071,0,0,0-3.9-.048v-3.14a14.024,14.024,0,0,0-6.744,2.829l2.186,2.186a10.771,10.771,0,0,0-2.728,2.781l-2.18-2.18A14.071,14.071,0,0,0,56.5,71.787h3.032a11.074,11.074,0,0,0,.089,3.889c-.023,0-.045.007-.07.007H56.588a14.022,14.022,0,0,0,2.822,6.434l1.984-1.984A1.605,1.605,0,0,1,61.557,80a10.6,10.6,0,0,0,2.781,2.659,1.485,1.485,0,0,1-.188.23l-1.935,1.935A14.019,14.019,0,0,0,68.6,87.384v-2.65a1.442,1.442,0,0,1,.059-.4,11.081,11.081,0,0,0,3.764-.037,1.483,1.483,0,0,1,.073.436l0,2.636a14.014,14.014,0,0,0,6.345-2.591l-1.89-1.89a1.485,1.485,0,0,1-.264-.371,10.695,10.695,0,0,0,2.682-2.63,1.517,1.517,0,0,1,.336.246l1.924,1.924a14,14,0,0,0,2.775-6.375H81.55a1.5,1.5,0,0,1-.33-.04,11.08,11.08,0,0,0,.09-3.834,1.616,1.616,0,0,1,.239-.024h2.943a14.116,14.116,0,0,0-.979-3.758l-7.224,3.7a9.285,9.285,0,0,0-2.024-3.032m-.709,7.96a4.178,4.178,0,1,1,0-5.908,4.178,4.178,0,0,1,0,5.908" transform="translate(-26.514 -31.604)" fill="#fff"/>
  </g>
</svg>
